<svg width="81" height="81" viewBox="0 0 81 81" fill="none" xmlns="http://www.w3.org/2000/svg">
<rect width="81" height="81" rx="30" fill="#7406FF"/>
<g clip-path="url(#clip0_101_3)">
<path d="M31.25 21.875C31.25 20.8359 32.0692 20 33.0875 20H41.6625C42.6808 20 43.5 20.8359 43.5 21.875C43.5 22.9141 42.6808 23.75 41.6625 23.75H40.4375L48.4 35H57.3119C57.9014 35 58.4833 35.1094 59.0345 35.3203L66.8516 38.3125C67.5406 38.5781 68 39.25 68 40C68 40.75 67.5406 41.4219 66.8516 41.6875L59.0345 44.6797C58.4833 44.8906 57.9014 45 57.3119 45H48.4L40.4375 56.25H41.6625C42.6808 56.25 43.5 57.0859 43.5 58.125C43.5 59.1641 42.6808 60 41.6625 60H33.0875C32.0692 60 31.25 59.1641 31.25 58.125C31.25 57.0859 32.0692 56.25 33.0875 56.25H33.7V45H31.25L27.0697 49.2656C26.6103 49.7344 25.9902 50 25.3394 50H23.9C22.5448 50 21.45 48.8828 21.45 47.5V42.5C20.0948 42.5 19 41.3828 19 40C19 38.6172 20.0948 37.5 21.45 37.5V32.5C21.45 31.1172 22.5448 30 23.9 30H25.3317C25.9825 30 26.6027 30.2656 27.062 30.7344L31.25 35H33.7V23.75H33.0875C32.0692 23.75 31.25 22.9141 31.25 21.875ZM25.125 38.75C24.4513 38.75 23.9 39.3125 23.9 40C23.9 40.6875 24.4513 41.25 25.125 41.25H30.025C30.6988 41.25 31.25 40.6875 31.25 40C31.25 39.3125 30.6988 38.75 30.025 38.75H25.125Z" fill="white"/>
</g>
<defs>
<clipPath id="clip0_101_3">
<rect width="49" height="40" fill="white" transform="translate(19 20)"/>
</clipPath>
</defs>
</svg>
